<?xml version="1.0" standalone="no"?>
<!DOCTYPE svg PUBLIC "-//W3C//DTD SVG 1.1//EN" "http://www.w3.org/Graphics/SVG/1.1/DTD/svg11.dtd">
<svg xmlns="http://www.w3.org/2000/svg">
<metadata>Generated by Fontastic.me</metadata>
<defs>
<font id="agora" horiz-adv-x="512">
<font-face font-family="agora" units-per-em="512" ascent="480" descent="-32"/>
<missing-glyph horiz-adv-x="512" />

<glyph glyph-name="twitter" unicode="&#98;" d="M481 395c-13-18-28-34-46-47 0-3 0-7 0-12 0-25-3-50-11-74-7-25-18-49-33-71-14-23-32-43-52-61-21-17-45-31-74-41-29-11-60-16-92-16-52 0-99 14-142 42 7-1 14-2 22-2 43 0 81 14 115 40-20 0-38 6-54 18-16 12-27 27-33 46 7-1 13-2 18-2 8 0 16 1 24 4-21 4-39 15-53 31-14 17-21 37-21 59l0 1c13-7 27-11 42-11-13 8-23 19-30 32-8 14-11 29-11 44 0 17 4 33 12 47 23-28 51-51 84-68 33-17 69-27 107-29-2 8-3 15-3 22 0 25 9 47 27 65 18 18 40 27 66 27 26 0 49-10 67-29 21 4 40 11 59 22-7-22-21-39-41-51 18 2 35 7 53 14z"/>
<glyph glyph-name="skype" unicode="&#99;" d="M372 208c0 10-2 19-6 26-4 8-8 15-14 20-5 5-12 10-21 14-8 4-16 7-23 10-7 2-16 4-25 6l-30 7c-6 1-10 2-12 3-3 1-6 2-10 3-4 2-7 3-9 5-2 2-3 4-5 6-1 2-2 5-2 9 0 14 14 22 41 22 8 0 16-2 22-4 7-2 12-5 16-8 4-3 7-6 11-10 3-3 7-6 11-8 4-2 9-3 14-3 9 0 16 3 21 9 6 6 8 13 8 22 0 10-5 20-16 28-10 9-24 15-40 20-17 4-34 6-52 6-13 0-26-1-38-4-12-3-23-8-34-14-11-6-19-14-25-25-7-10-10-22-10-36 0-12 2-22 5-31 4-8 9-16 16-21 7-6 15-11 23-14 8-4 18-7 30-9l41-11c18-4 28-7 32-10 7-4 10-10 10-17 0-8-4-14-12-19-7-4-17-7-30-7-10 0-18 2-26 5-8 3-14 6-19 11-4 4-9 8-13 13-4 4-8 8-13 11-4 3-10 4-15 4-10 0-17-3-22-8-5-6-7-13-7-22 0-17 12-32 35-45 23-12 51-19 83-19 14 0 27 2 40 6 13 3 24 8 35 15 11 7 19 16 25 27 7 11 10 23 10 37z m103-62c0-30-10-56-32-77-21-22-47-32-77-32-25 0-47 7-67 22-15-3-29-4-43-4-27 0-53 5-78 16-25 10-46 25-64 43-18 18-33 39-43 64-11 25-16 51-16 78 0 14 1 28 4 43-15 20-22 42-22 67 0 30 10 56 32 77 21 22 47 32 77 32 25 0 47-7 67-22 15 3 29 4 43 4 27 0 53-5 78-16 25-10 46-25 64-43 18-18 33-39 43-64 11-25 16-51 16-78 0-14-1-28-4-43 15-20 22-42 22-67z"/>
<glyph glyph-name="24h" unicode="&#100;" d="M501 265c-7 0-12-5-12-12 0-127-104-231-233-231-129 0-233 104-233 231 0 128 104 231 233 231 38 0 76-9 109-26 5-3 12-1 15 4 3 6 1 13-4 16-37 19-78 29-120 29-141 0-256-114-256-254 0-139 115-253 256-253 141 0 256 114 256 253 0 7-5 12-11 12z m-155 163c-7 0-11-5-11-11 0-6 5-11 11-11l0 0 83 2c3 0 6 1 8 3 2 2 3 5 3 8l-2 82c0 6-5 11-11 11-7 0-12-5-11-11l1-71z m-59-263c6 0 11 5 11 11l0 38 27 0c6 0 11 5 11 11 0 6-5 11-11 11l-27 0 0 95c0 5-3 9-8 11-4 1-9 0-12-4l-79-106c-3-4-3-8-1-12 2-4 6-6 10-6l68 0 0-38c0-6 5-11 11-11z m-57 71l46 61 0-61z m-149-46c-3-3-4-8-2-12 1-4 6-7 10-7l100 0c6 0 11 5 11 11 0 6-5 11-11 11l-73 0 59 60c16 15 20 37 12 57-8 20-26 32-47 32-1 0-1 0-1 0-34 0-61-27-61-60 0-6 5-11 11-11 6 0 11 5 11 11 0 21 18 38 39 38l0 0c12 0 22-7 27-18 4-9 4-23-7-33z m342-25c6 0 11 5 11 11l0 21c0 22-18 39-40 39l0 0c-6 0-12-1-17-3l0 53c0 7-5 12-12 12-6 0-11-5-11-12l0-110c0-6 5-11 11-11 7 0 12 5 12 11l0 21c0 10 7 17 17 17l0 0c10 0 18-7 18-17l0-21c0-6 5-11 11-11z"/>
<glyph glyph-name="arrowlr" unicode="&#101;" d="M462 375l-165 135c-3 2-7 3-11 1-3-2-5-5-5-9l0-94c0-5 4-10 10-10 5 0 10 5 10 10l0 73 139-114-139-113 0 72c0 5-5 10-10 10l-164 0 0 62 89 0c5 0 10 5 10 10 0 6-5 11-10 11l-99 0c-5 0-10-5-10-11l0-82c0-6 5-10 10-10l164 0 0-84c0-4 2-7 5-9 2 0 3-1 5-1 2 0 4 1 6 2l165 135c3 2 4 5 4 8 0 3-1 6-4 8z m-67-179l-123 0c-5 0-10-4-10-10 0-5 5-10 10-10l113 0 0-62-164 0c-5 0-10-5-10-11l0-72-139 114 139 113 0-72c0-5 5-10 10-10 6 0 10 5 10 10l0 94c0 4-2 7-5 9-4 1-8 1-11-1l-165-135c-3-2-4-5-4-8 0-3 1-6 4-8l165-135c2-1 4-2 6-2 2 0 3 0 5 1 3 2 5 5 5 9l0 83 164 0c5 0 10 5 10 10l0 83c0 6-5 10-10 10z"/>
<glyph glyph-name="card" unicode="&#102;" d="M456 445l-287 0c-31 0-56-25-56-57l0-14c0-6 5-11 11-11 6 0 11 5 11 11l0 14c0 19 15 35 34 35l287 0c19 0 34-16 34-35l0-41-434 0c-31 0-56-26-56-58l0-165c0-32 25-58 56-58l287 0c31 0 56 26 56 58l0 131 91 0 0-32c0-20-15-35-34-35l-31 0c-6 0-11-5-11-11 0-7 5-12 11-12l31 0c31 0 56 26 56 58l0 165c0 32-25 57-56 57z m-79-321c0-20-15-35-34-35l-287 0c-19 0-34 15-34 35l0 165c0 20 15 35 34 35l287 0c19 0 34-15 34-35z m20 179c-2 8-5 15-10 21l32 0z m30-25l-24 0c1 0 2 1 3 2l44 44 23 0-44-44c-1-1-1-2-2-2z m60 0l-29 0 29 29z m-341-97c-6 0-11-5-11-11l0-35-67 0 0 55 47 0c6 0 10 5 10 11 0 6-4 11-10 11l-58 0c-6 0-11-5-11-11l0-77c0-6 5-11 11-11l89 0c6 0 11 5 11 11l0 46c0 6-5 11-11 11z m192 7l-128 0c-6 0-11-5-11-11 0-7 5-12 11-12l128 0c6 0 11 5 11 12 0 6-5 11-11 11z m0-53l-128 0c-6 0-11-5-11-11 0-6 5-11 11-11l128 0c6 0 11 5 11 11 0 6-5 11-11 11z"/>
<glyph glyph-name="search" unicode="&#103;" d="M366 190l-23 0-8 8c28 33 46 77 46 124 0 105-86 190-191 190-105 0-190-85-190-190 0-105 85-191 190-191 47 0 91 18 124 46l8-8 0-23 146-146 44 44z m-176 0c-73 0-131 59-131 132 0 73 58 131 131 131 73 0 132-58 132-131 0-73-59-132-132-132z"/>
<glyph glyph-name="star" unicode="&#104;" d="M331 234l94 68c4 3 5 7 4 12-1 4-6 7-11 7l-116 0-36 111c-1 4-6 7-11 7-5 0-9-3-11-7l-36-111-116 0c-5 0-9-3-11-7-1-5 0-10 4-12l94-68-36-111c-1-5 0-10 4-12 4-3 9-3 13 0l94 68 94-68c2-1 4-2 6-2 2 0 4 1 7 2 3 3 5 7 4 12z m-69-33c-2 1-4 2-6 2-2 0-4-1-6-2l-74-54 28 87c1 4 0 9-5 11l-73 54 91 0c4 0 8 3 10 7l28 87 28-87c1-4 5-7 10-7l91 0-74-54c-3-3-5-7-4-11l28-87z m-6 261c6 0 11 4 11 11l0 28c0 7-5 11-11 11-6 0-11-4-11-11l0-28c0-6 5-11 11-11z m0-412c-6 0-11-4-11-11l0-28c0-7 5-11 11-11 6 0 11 4 11 11l0 28c0 6-5 11-11 11z m245 217l-28 0c-7 0-11-5-11-11 0-6 4-11 11-11l28 0c7 0 11 5 11 11 0 6-4 11-11 11z m-451-11c0 6-4 11-11 11l-28 0c-7 0-11-5-11-11 0-6 4-11 11-11l28 0c6 0 11 5 11 11z m360 143c3 0 5 1 7 3l20 20c5 5 5 11 0 15-4 5-10 5-15 0l-20-20c-4-4-4-11 0-15 2-2 4-3 8-3z m-315-289l-20-20c-5-5-5-11 0-15 2-3 5-4 7-4 2 0 5 1 8 4l20 20c4 4 4 11 0 15-3 4-11 4-15 0z m322 0c-4 4-11 4-15 0-4-4-4-11 0-15l20-20c3-2 6-4 8-4 3 0 5 1 7 4 5 4 5 10 0 15z m-322 292c2-2 5-3 7-3 4 0 6 1 8 3 4 4 4 11 0 15l-20 20c-5 5-11 5-15 0-5-4-5-10 0-15z m242 44c1-1 3-1 4-1 5 0 9 2 10 6l12 27c2 5 0 12-6 14-5 2-11 0-14-6l-11-26c-2-6 0-12 5-14z m-162-380c-5 2-12 0-14-5l-12-27c-2-5 0-12 6-14 1-1 3-1 4-1 4 0 8 2 10 7l11 26c2 6 0 12-5 14z m310 104l-26 11c-6 2-12 0-14-5-2-5 0-12 5-14l27-12c1-1 3-1 4-1 4 0 9 2 10 7 3 5 0 10-6 14z m-424 181l-27 12c-5 2-12 0-14-6-2-5 0-11 6-14l26-11c1-1 3-1 5-1 4 0 8 2 9 6 3 5 0 12-5 14z m397-26c1 0 2 0 4 1l27 11c5 2 8 9 6 14-2 5-9 8-14 6l-27-10c-5-2-8-9-6-14 1-4 5-8 10-8z m-407-139l-26-11c-6-2-9-9-7-14 2-4 5-6 10-6 1 0 2 0 4 1l27 10c5 2 8 9 6 14-2 5-8 8-14 6z m296-127c-2 5-9 8-14 6-6-2-9-9-7-14l11-26c2-5 5-7 10-7 1 0 2 0 4 1 5 2 9 9 6 14z m-182 394c2-4 6-6 10-6 1 0 2 0 4 1 6 2 9 9 7 14l-11 27c-2 5-9 8-14 6-5-2-8-9-6-14z"/>
<glyph glyph-name="user" unicode="&#105;" d="M346 196c49 30 81 83 81 145 0 94-77 171-171 171-94 0-171-77-171-171 0-62 32-115 81-145-85-32-149-107-166-196l43 0c21 98 109 170 213 170 105 0 192-72 213-170l43 0c-17 92-81 166-166 196z m-218 145c0 71 58 128 128 128 71 0 128-57 128-128 0-70-57-128-128-128-70 0-128 58-128 128z"/>
<glyph glyph-name="phay" unicode="&#106;" d="M231 221l0-115c0-16-6-30-17-41-11-11-25-17-41-17l-115 0c-16 0-30 6-41 17-11 11-17 25-17 41l0 212c0 20 4 40 12 59 8 19 19 36 33 49 14 14 30 25 49 33 19 9 39 13 60 13l19 0c5 0 10-2 14-6 4-4 5-8 5-14l0-38c0-5-1-10-5-14-4-4-9-5-14-5l-19 0c-21 0-39-8-54-23-16-15-23-33-23-54l0-10c0-8 3-15 8-20 6-6 13-9 21-9l67 0c16 0 30-6 41-17 11-11 17-25 17-41z m269 0l0-115c0-16-5-30-16-41-12-11-25-17-41-17l-116 0c-16 0-29 6-41 17-11 11-17 25-17 41l0 212c0 20 5 40 13 59 8 19 19 36 33 49 13 14 30 25 49 33 19 9 39 13 59 13l20 0c5 0 9-2 13-6 4-4 6-8 6-14l0-38c0-5-2-10-6-14-4-4-8-5-13-5l-20 0c-21 0-39-8-54-23-15-15-23-33-23-54l0-10c0-8 3-15 9-20 6-6 12-9 20-9l68 0c16 0 29-6 41-17 11-11 16-25 16-41z"/>
<glyph glyph-name="agora" unicode="&#107;" d="M72 212l-8 19-36 0-8-19-20 0 37 86 18 0 37-86z m-26 60l-11-25 22 0z m124-16l19 0 0-31c-8-9-20-14-35-14-13 0-23 4-32 13-8 8-13 19-13 31 0 13 5 23 13 32 9 8 20 13 32 13 12 0 23-4 32-12l-10-15c-4 4-7 6-11 7-3 1-6 2-10 2-7 0-13-2-18-7-5-5-8-12-8-20 0-8 3-14 7-19 5-5 11-7 17-7 7 0 12 1 17 3z m120-32c-9-8-19-13-32-13-12 0-23 5-32 13-8 8-13 19-13 32 0 12 5 23 13 31 9 8 20 13 32 13 13 0 23-5 32-13 9-8 13-19 13-31 0-13-4-24-13-32z m-6 31c0 8-3 15-8 20-5 5-11 8-18 8-7 0-13-3-18-8-5-5-7-12-7-20 0-7 2-14 7-19 5-5 11-8 18-8 7 0 13 3 18 8 5 5 8 12 8 19z m117 14c0-13-6-22-17-26l22-31-23 0-19 28-14 0 0-28-19 0 0 86 33 0c13 0 22-3 28-7 6-5 9-12 9-22z m-23-10c2 2 3 6 3 10 0 5-1 8-3 10-3 1-7 2-13 2l-15 0 0-25 14 0c7 0 11 1 14 3z m115-47l-8 19-35 0-8-19-21 0 37 86 19 0 37-86z m-26 60l-10-25 21 0z"/>
<glyph glyph-name="arrow-r" unicode="&#108;" d="M98 452l60 60 256-256-256-256-60 60 195 196z"/>
<glyph glyph-name="arrow-l" unicode="&#109;" d="M414 452l-60 60-256-256 256-256 60 60-195 196z"/>
<glyph glyph-name="facebook" unicode="&#110;" d="M393 475c23 0 42-8 58-24 16-16 24-35 24-58l0-274c0-23-8-42-24-58-16-16-35-24-58-24l-54 0 0 170 57 0 9 66-66 0 0 42c0 11 3 19 7 24 5 5 13 8 26 8l35 0 0 60c-12 1-29 2-51 2-26 0-46-7-62-23-15-15-23-36-23-64l0-49-57 0 0-66 57 0 0-170-152 0c-23 0-42 8-58 24-16 16-24 35-24 58l0 274c0 23 8 42 24 58 16 16 35 24 58 24z"/>
<glyph glyph-name="user-1" unicode="&#97;" d="M457 111c0-23-7-41-21-55-14-13-32-19-55-19l-250 0c-23 0-41 6-55 19-14 14-21 32-21 55 0 10 0 20 1 29 1 10 2 20 4 31 2 11 4 22 7 31 3 10 8 19 13 28 5 9 11 17 17 23 7 7 15 12 25 16 9 3 20 5 32 5 1 0 5-2 12-6 6-4 13-9 21-14 8-5 18-9 31-13 13-4 25-6 38-6 13 0 25 2 38 6 13 4 23 8 31 13 8 5 15 10 21 14 7 4 11 6 12 6 12 0 23-2 32-5 10-4 18-9 25-16 6-6 12-14 17-23 5-9 10-18 13-28 3-9 5-20 7-31 2-11 3-21 4-31 1-9 1-19 1-29z m-91 255c0-31-11-56-32-78-22-21-48-32-78-32-30 0-56 11-78 32-21 22-32 47-32 78 0 30 11 56 32 77 22 22 48 32 78 32 30 0 56-10 78-32 21-21 32-47 32-77z"/>
<glyph glyph-name="sign-out" unicode="&#112;" d="M201 101c0-1 0-3 0-6 1-3 1-6 1-8-1-2-1-4-1-6-1-3-2-5-3-6-2-1-4-2-6-2l-91 0c-23 0-42 8-59 24-16 16-24 36-24 58l0 202c0 22 8 42 24 58 17 16 36 24 59 24l91 0c2 0 5-1 6-3 2-2 3-4 3-6 0-1 0-3 0-6 1-3 1-6 1-8-1-2-1-4-1-6-1-3-2-5-3-6-2-1-4-2-6-2l-91 0c-13 0-24-4-33-13-9-9-13-20-13-32l0-202c0-12 4-23 13-32 9-9 20-13 33-13l89 0 3-1 3 0 3-2 2-3z m265 155c0-5-2-9-5-13l-156-155c-3-4-7-6-12-6-5 0-10 2-13 6-4 3-6 8-6 13l0 82-128 0c-5 0-9 2-13 5-3 4-5 8-5 13l0 110c0 5 2 9 5 13 4 3 8 5 13 5l128 0 0 82c0 5 2 10 6 13 3 4 8 6 13 6 5 0 9-2 12-6l156-155c3-4 5-8 5-13z"/>
<glyph glyph-name="pencil-square-o" unicode="&#113;" d="M254 174l33 33-44 43-33-33 0-16 28 0 0-27z m125 205c-3 3-6 3-9 0l-100-100c-3-3-3-6 0-9 3-3 6-3 9 0l100 100c3 3 3 6 0 9z m23-169l0-55c0-22-8-42-24-58-16-16-35-24-58-24l-238 0c-22 0-42 8-58 24-16 16-24 36-24 58l0 238c0 23 8 42 24 58 16 16 36 24 58 24l238 0c12 0 23-2 33-7 3-1 5-3 6-6 0-4-1-6-3-9l-14-14c-3-2-6-3-9-2-5 1-9 2-13 2l-238 0c-12 0-23-5-32-14-9-9-13-19-13-32l0-238c0-12 4-23 13-32 9-9 20-13 32-13l238 0c13 0 23 4 32 13 9 9 14 20 14 32l0 36c0 3 1 5 2 7l19 18c2 3 6 4 10 2 3-2 5-4 5-8z m-27 211l82-83-192-192-82 0 0 83z m127-38l-27-26-82 82 26 26c6 5 12 8 20 8 7 0 14-3 19-8l44-43c5-6 8-12 8-20 0-7-3-14-8-19z"/>
<glyph glyph-name="arrow-sans-down" unicode="&#114;" d="M32 352l224-224 224 224z"/>
<glyph glyph-name="close" unicode="&#115;" d="M512 461l-51 51-205-205-205 205-51-51 205-205-205-205 51-51 205 205 205-205 51 51-205 205z"/>
<glyph glyph-name="dollar-bill" unicode="&#116;" d="M201 183l110 0 0 27-37 0 0 128-32 0-43-39 22-23c8 7 14 13 16 17l1 0 0-83-37 0z m146 73c0-13-2-27-6-41-4-13-9-26-17-38-7-12-17-21-29-29-12-7-25-11-39-11-14 0-27 4-39 11-12 8-22 17-29 29-8 12-13 25-17 38-4 14-6 28-6 41 0 13 2 27 6 41 4 13 9 26 17 38 7 12 17 21 29 29 12 7 25 11 39 11 14 0 27-4 39-11 12-8 22-17 29-29 8-12 13-25 17-38 4-14 6-28 6-41z m147-73l0 146c-20 0-38 7-52 22-14 14-21 31-21 51l-330 0c0-20-7-37-21-51-14-15-32-22-52-22l0-146c20 0 38-7 52-22 14-14 21-31 21-51l330 0c0 20 7 37 21 51 14 15 32 22 52 22z m36 238l0-330c0-5-2-9-5-12-4-4-8-6-13-6l-512 0c-5 0-9 2-13 6-3 3-5 7-5 12l0 330c0 5 2 9 5 12 4 4 8 6 13 6l512 0c5 0 9-2 13-6 3-3 5-7 5-12z"/>
<glyph glyph-name="clock" unicode="&#111;" d="M253 423c4 0 8 4 8 9l0 8c0 5-4 9-8 9-5 0-9-4-9-9l0-8c0-5 4-9 9-9z m0-341c-5 0-9-4-9-8l0-9c0-5 4-9 9-9 4 0 8 4 8 9l0 9c0 4-3 8-8 8z m179 162l9 0c4 0 8 4 8 9 0 4-4 8-8 8l-9 0c-5 0-9-4-9-8 0-5 4-9 9-9z m-358 17l-9 0c-5 0-8-4-8-8 0-5 3-9 8-9l9 0c4 0 8 4 8 9 0 4-4 8-8 8z m306 131l-7-6c-3-4-3-9 0-13 2-1 4-2 7-2 2 0 4 1 6 2l6 6c3 4 3 9 0 13-4 3-9 3-12 0z m-260-260l-6-6c-3-3-3-9 0-12 2-2 4-2 6-2 2 0 4 0 6 2l6 6c3 3 3 9 0 12-3 3-9 3-12 0z m266 0c-4 3-9 3-13 0-3-3-3-9 0-12l7-6c1-2 3-2 6-2 2 0 4 0 6 2 3 3 3 9 0 12z m-260 260c-3 3-9 3-12 0-3-4-3-9 0-13l6-6c2-1 4-2 6-2 2 0 4 1 6 2 3 4 3 9 0 13z m221-132l-61 0c-3 12-13 22-25 25l0 86c0 5-4 9-8 9-5 0-9-4-9-9l0-86c-14-4-25-17-25-33 0-19 15-34 34-34 16 0 29 11 33 25l61 0c4 0 8 4 8 9 0 4-4 8-8 8z m-94-25c-10 0-17 7-17 17 0 9 7 17 17 17 9 0 17-8 17-17 0-10-8-17-17-17z m180 191l35-35c1-2 4-3 6-3 2 0 4 1 6 3 27 27 27 71 0 98-27 27-71 27-98 0-2-2-3-4-3-6 0-3 1-5 3-6l39-39-15-15c-40 37-94 59-153 59-59 0-113-22-154-59l-14 15 39 39c1 1 2 3 2 6 0 2-1 4-2 6-27 27-71 27-98 0-27-27-27-71 0-98 1-2 3-3 6-3 2 0 4 1 6 3l35 35 14-15c-40-41-65-97-65-159 0-85 46-159 114-199l-26-26c-3-3-3-8 0-12 2-1 4-2 6-2 2 0 5 1 6 2l30 30c30-15 65-24 101-24 36 0 70 9 101 24l29-30c2-1 4-2 6-2 3 0 5 1 6 2 4 4 4 9 0 12l-26 26c68 40 114 114 114 199 0 62-24 118-64 159z m35 51c18-19 20-47 5-68l-72 73c20 15 49 13 67-5z m-436-68c-14 21-13 49 6 68 18 18 47 20 67 5z m221-371c-118 0-214 96-214 214 0 117 96 213 214 213 117 0 213-96 213-213 0-118-96-214-213-214z"/>
<glyph glyph-name="email" unicode="&#117;" d="M411 161c-2 0-4 1-5 3l-94 88c-4 3-4 8-1 12 3 3 8 3 12 0l94-89c3-3 3-8 0-11-1-2-3-3-6-3z m-314 0c-3 0-5 1-6 3-3 3-3 8 0 11l94 89c4 3 9 3 12 0 3-4 3-9 0-12l-95-88c-1-2-3-3-5-3z m370-82l-426 0c-23 0-41 18-41 41l0 279c0 23 18 41 41 41l426 0c23 0 41-18 41-41l0-279c0-23-18-41-41-41z m-426 345c-14 0-25-11-25-25l0-279c0-14 11-24 25-24l426 0c14 0 25 10 25 24l0 279c0 14-11 25-25 25z m213-205c-11 0-22 3-30 10l-210 184c-4 3-4 8-1 11 3 4 8 4 11 1l211-183c10-9 28-9 38 0l210 183c4 3 9 3 12-1 3-3 3-8-1-11l-210-184c-8-7-19-10-30-10z"/>
<glyph glyph-name="office" unicode="&#118;" d="M486 52c-2 0-3 0-4-1-6 11-18 18-30 18-13 0-24-7-30-18-1 1-3 1-4 1-14 0-26-12-26-26 0-3 1-6 2-8l-36 0 0 51 43 0c4 0 8 4 8 8l0 341c0 5-4 9-8 9l-256 0c-5 0-9-4-9-9l0-409c0-5 4-9 9-9l341 0c14 0 26 12 26 26 0 14-12 26-26 26z m-128 358l34 0 0-51-34 0z m0-69l34 0 0-51-34 0z m0-68l34 0 0-51-34 0z m0-68l34 0 0-51-34 0z m0-68l34 0 0-51-34 0z m-170-119l-35 0 0 51 35 0z m0 68l-35 0 0 51 35 0z m0 68l-35 0 0 51 35 0z m0 68l-35 0 0 51 35 0z m0 68l-35 0 0 51 35 0z m0 69l-35 0 0 51 35 0z m51-341l-34 0 0 51 34 0z m0 68l-34 0 0 51 34 0z m0 68l-34 0 0 51 34 0z m0 68l-34 0 0 51 34 0z m0 68l-34 0 0 51 34 0z m0 69l-34 0 0 51 34 0z m51-341l-34 0 0 51 34 0z m0 68l-34 0 0 51 34 0z m0 68l-34 0 0 51 34 0z m0 68l-34 0 0 51 34 0z m0 68l-34 0 0 51 34 0z m0 69l-34 0 0 51 34 0z m51-341l-34 0 0 51 34 0z m0 68l-34 0 0 51 34 0z m0 68l-34 0 0 51 34 0z m0 68l-34 0 0 51 34 0z m0 68l-34 0 0 51 34 0z m0 69l-34 0 0 51 34 0z m145-341l-68 0c-5 0-9 3-9 8 0 5 4 9 9 9 1 0 3-1 4-2 3-1 6-2 8-1 3 2 5 4 5 6 2 8 9 14 17 14 8 0 15-6 16-14 1-2 3-4 5-6 3-1 6 0 8 1 6 4 13-1 13-7 0-5-3-8-8-8z m-298 434l0 26 59 0c5 0 9 4 9 8l0 9 34 0 0-9c0-4 4-8 8-8l60 0 0-17-145 0c-5 0-8-4-8-9 0-4 3-8 8-8l213 0 0-354c0-5 4-8 9-8 4 0 8 3 8 8l0 362c0 5-4 9-8 9l-60 0 0 25c0 5-4 9-8 9l-60 0 0 8c0 5-4 9-9 9l-51 0c-4 0-8-4-8-9l0-8-60 0c-5 0-8-4-8-9l0-25-60 0c-5 0-9-4-9-9l0-434-51 0 0 35c20 3 34 21 34 41 0 1 0 111-42 111-43 0-43-110-43-111 0-20 15-38 34-41l0-35-25 0c-5 0-9-4-9-9 0-5 4-9 9-9l102 0c5 0 8 4 8 9l0 435 60 0c5 0 9 4 9 8z m-171-358c0 43 11 94 26 94 14 0 25-51 25-94 0-14-11-25-25-25-14 0-26 11-26 25z"/>
</font>
</defs>
</svg>
